# 3ds Max Wavefront OBJ Exporter v0.97b - (c)2007 guruware
# File Created: 12.03.2016 14:49:24

mtllib BlocoC.mtl

#
# object Box001
#

v  -69.4173 0.0000 21.9007
v  -69.4173 0.0000 -21.9007
v  69.4173 0.0000 -21.9007
v  69.4173 0.0000 21.9007
v  -69.4173 57.7593 21.9007
v  69.4173 57.7593 21.9007
v  69.4173 57.7593 -21.9007
v  -69.4173 57.7593 -21.9007
# 8 vertices

vn 0.0000 -1.0000 -0.0000
vn 0.0000 1.0000 -0.0000
vn 0.0000 0.0000 1.0000
vn 1.0000 0.0000 -0.0000
vn 0.0000 0.0000 -1.0000
vn -1.0000 0.0000 -0.0000
# 6 vertex normals

vt 0.1415 0.9036 0.0000
vt 0.1415 0.9383 0.0000
vt 0.0351 0.9383 0.0000
vt 0.0351 0.9036 0.0000
vt 0.9964 0.2774 0.0000
vt 0.0038 0.2774 0.0000
vt 0.0038 0.0040 0.0000
vt 0.9964 0.0040 0.0000
vt 0.0033 0.6424 0.0000
vt 0.9950 0.6424 0.0000
vt 0.9950 0.9999 0.0000
vt 0.0033 0.9999 0.0000
vt 0.7941 0.2908 0.0000
vt 0.9951 0.2908 0.0000
vt 0.9951 0.6367 0.0000
vt 0.7941 0.6367 0.0000
vt 0.0034 0.2867 0.0000
vt 0.9981 0.2867 0.0000
vt 0.9981 0.6384 0.0000
vt 0.0034 0.6384 0.0000
vt 0.7987 0.6439 0.0000
vt 0.9982 0.6439 0.0000
vt 0.9982 0.9976 0.0000
vt 0.7987 0.9976 0.0000
# 24 texture coords

g Box001
usemtl 01___Default
s 2
f 1/1/1 2/2/1 3/3/1 
f 3/3/1 4/4/1 1/1/1 
s 4
f 5/5/2 6/6/2 7/7/2 
f 7/7/2 8/8/2 5/5/2 
s 8
f 1/9/3 4/10/3 6/11/3 
f 6/11/3 5/12/3 1/9/3 
s 16
f 4/13/4 3/14/4 7/15/4 
f 7/15/4 6/16/4 4/13/4 
s 32
f 3/17/5 2/18/5 8/19/5 
f 8/19/5 7/20/5 3/17/5 
s 64
f 2/21/6 1/22/6 5/23/6 
f 5/23/6 8/24/6 2/21/6 
# 12 faces

